<?xml version="1.0" encoding="UTF-8"?>
<svg width="512px" height="512px" viewBox="0 0 512 512" version="1.1" xmlns="http://www.w3.org/2000/svg" xmlns:xlink="http://www.w3.org/1999/xlink">
    <title>favicon</title>
    <g id="favicon" stroke="none" stroke-width="1" fill="none" fill-rule="evenodd">
        <rect id="Rectangle" fill="#000000" x="16" y="16" width="480" height="480"></rect>
        <path d="M149.636368,335.545455 C174.909097,335.545455 185.63637,326.454545 193.272728,299.72727 L176.000006,293.909088 C170.000005,313.90909 165.090914,318.818181 149.636368,318.818181 C126.727275,318.818181 119.454547,304.81818 119.454547,260.090904 C119.454547,215.545446 126.727275,201.727263 149.636368,201.727263 C165.090914,201.727263 170.000005,206.818173 176.000006,227.181811 L193.272728,221.18181 C185.63637,194.272717 174.727279,184.99999 149.636368,184.99999 C113.272728,184.99999 101.272728,205.181809 101.272728,260.090904 C101.272728,315.181817 113.272728,335.545455 149.636368,335.545455 Z M276.181823,333 L278.54546,321.545454 L252.727276,321.545454 L281.272733,187.545444 L274.909096,187.545444 L268.727277,186.99999 C264.909095,204.99999 250.909094,216.090901 232.727275,216.090901 L231.272729,227.727265 C243.27273,227.727265 253.818186,224.27272 262.181822,218.272719 L240.181821,321.545454 L214.363637,321.545454 L212.000001,333 L276.181823,333 Z M353.818185,335.545455 C385.454551,335.545455 398.000006,323.545454 406.000007,285.909088 L417.454553,232.090902 C424.727281,197.181809 416.363644,184.99999 383.454551,184.99999 C351.818185,184.99999 339.454548,196.272718 332.000002,230.818175 C324.363637,266.99999 332.909092,278.63636 365.818186,278.63636 C380.727278,278.63636 389.090915,276.090905 397.818188,267.181814 L393.63637,284.99999 C387.454551,314.454544 377.818187,324.090908 354.000003,324.090908 C331.818183,324.090908 326.000001,318.99999 330.000001,300.454543 L317.454546,299.363634 C311.818182,326.272727 321.454546,335.545455 353.818185,335.545455 Z M366.000004,266.999995 C343.27273,266.999995 338.545457,259.909086 344.181821,232.818175 C350.000003,205.363627 359.454549,196.454536 383.272732,196.454536 C406.000007,196.454536 410.909098,204.272718 405.272734,230.636356 C399.272734,258.999995 389.818187,266.999995 366.000004,266.999995 Z" id="C19" fill="#FFFFFF" fill-rule="nonzero"></path>
    </g>
</svg>