<?xml version="1.0" encoding="UTF-8"?>
<svg width="512px" height="512px" viewBox="0 0 512 512" version="1.1" xmlns="http://www.w3.org/2000/svg" xmlns:xlink="http://www.w3.org/1999/xlink">
    <title>favicon</title>
    <g id="favicon" stroke="none" stroke-width="1" fill="none" fill-rule="evenodd">
        <rect id="Rectangle" fill="#F7F7F9" x="0" y="0" width="512" height="512" rx="50"></rect>
        <g id="noun_virus_3885507" transform="translate(52.000000, 55.000000)" fill="#8E7CC3">
            <path d="M116.120168,23.934742 C121.28801,21.3506232 127.572109,23.445538 130.155925,28.6135664 L151.079209,70.4616442 C153.663234,75.6296725 151.568604,81.9137891 146.400762,84.4979079 C141.232921,87.0818175 134.948822,84.987112 132.365005,79.8190836 L111.441722,37.9710058 C108.857696,32.8029774 110.952326,26.5186516 116.120168,23.934742 Z" id="Path"></path>
            <path d="M81.0045682,47.3744434 C78.4204121,42.1125285 80.5151478,35.7140365 85.6832508,33.0831855 L148.456273,1.1269427 C153.624376,-1.50412129 159.908792,0.628851395 162.492739,5.89076634 C165.077732,11.1526813 162.982159,17.5509602 157.814056,20.1820242 L95.0410344,52.138267 C89.8729315,54.769118 83.588515,52.6363584 81.0045682,47.3744434 Z" id="Path"></path>
            <path d="M248.408873,395.50002 C245.824736,390.237855 247.921339,383.840169 253.08752,381.209086 L315.86007,349.252614 C321.028343,346.621531 327.313968,348.754093 329.898104,354.016259 C332.482241,359.278424 330.385638,365.67611 325.219457,368.307193 L262.446907,400.263665 C257.278634,402.894748 250.993009,400.762186 248.408873,395.50002 Z" id="Path"></path>
            <path d="M135.226183,385.326761 C132.026197,390.099344 125.50362,391.412063 120.657165,388.262779 L61.792453,349.997228 C56.9459981,346.847945 55.6111988,340.425146 58.811184,335.654634 C62.0109589,330.882052 68.5335365,329.569333 73.3799914,332.718616 L132.244703,370.984167 C137.091158,374.133451 138.425957,380.556249 135.226183,385.326761 Z" id="Path"></path>
            <path d="M352.090655,65.7364076 C348.891935,70.5079015 342.368313,71.8220552 337.522914,68.6715648 L278.656791,30.4070614 C273.811392,27.256778 272.475963,20.8348793 275.676786,16.0635924 C278.875506,11.2920985 285.399129,9.97794478 290.244527,13.1284352 L349.110651,51.3929386 C353.95605,54.543222 355.291479,60.9651207 352.090655,65.7364076 Z" id="Path"></path>
            <path d="M399.319956,169.326291 C404.996907,169.672794 409.321026,174.647744 408.981274,180.435402 L404.842474,250.746208 C404.502722,256.535966 399.624703,260.94601 393.949811,260.599507 C388.27286,260.250903 383.948741,255.275953 384.288493,249.488295 L388.427293,179.17749 C388.767045,173.389832 393.645064,168.977687 399.319956,169.326291 Z" id="Path"></path>
            <path d="M15.0510789,140.791299 C20.7269347,141.138641 25.0521906,146.112944 24.7114004,151.901632 L20.5733218,222.211358 C20.2327375,228.001096 15.3552162,232.411125 9.67915444,232.064623 C4.00309271,231.716021 -0.321957197,226.741088 0.0188330146,220.95345 L4.15691161,150.643304 C4.49749591,144.854826 9.3750172,140.443747 15.0510789,140.791299 Z" id="Path"></path>
            <path d="M96.0960239,367.29355 C91.1863018,364.06094 89.8340189,357.474657 93.0757053,352.579016 L119.325589,312.946625 C122.567275,308.050984 129.175501,306.704417 134.085223,309.934903 C138.995158,313.167513 140.347441,319.753796 137.105541,324.649437 L110.855658,364.281828 C107.613971,369.175345 101.005959,370.524036 96.0960239,367.29355 Z" id="Path"></path>
            <path d="M27.7394365,289.075096 C25.1553164,283.909095 27.250023,277.623689 32.418054,275.039642 L74.2661531,254.116187 C79.4341841,251.53214 85.7185131,253.626578 88.302424,258.794671 C90.8865441,263.962765 88.7918375,270.248171 83.6238065,272.830125 L41.7757074,293.753581 C36.6076764,296.337627 30.3233474,294.243189 27.7394365,289.075096 Z" id="Path"></path>
            <path d="M5.72635512,189.070471 C6.07681706,183.05817 11.0957965,178.478614 16.9364758,178.838437 L64.2308278,181.760629 C70.071507,182.120451 74.5219923,187.286625 74.1713185,193.298927 C73.8208565,199.309048 68.801877,203.890784 62.9611978,203.528781 L15.6668458,200.606588 C9.82637846,200.246766 5.37568129,195.080592 5.72635512,189.070471 Z" id="Path"></path>
            <path d="M39.8050696,90.3890621 C43.0366135,85.4793246 49.6241631,84.1270375 54.5185237,87.3687341 L94.1515036,113.6187 C99.0458643,116.860396 100.393916,123.468642 97.1623722,128.37838 C93.9308283,133.288117 87.3432788,134.640404 82.4489181,131.398708 L42.8159383,105.148742 C37.9215776,101.907046 36.5735257,95.2987996 39.8050696,90.3890621 Z" id="Path"></path>
            <path d="M262.598761,316.892969 C267.766689,314.308834 274.051894,316.403343 276.635858,321.571612 L297.558643,363.419939 C300.142607,368.588208 298.046144,374.871734 292.880308,377.455869 C287.71238,380.040003 281.427176,377.945494 278.843212,372.777226 L257.920427,330.928898 C255.336463,325.760629 257.432926,319.477103 262.598761,316.892969 Z" id="Path"></path>
            <path d="M276.816827,91.4553422 C271.907987,88.2238006 270.555073,81.6364683 273.795675,76.7418987 L300.046463,37.1091599 C303.287065,32.2145903 309.896102,30.8665394 314.804942,34.098081 C319.715913,37.329835 321.068826,43.9171674 317.826094,48.8117369 L291.577436,88.4444757 C288.334704,93.3390453 281.727798,94.6868838 276.816827,91.4553422 Z" id="Path"></path>
            <path d="M322.599546,142.596028 C320.015466,137.428179 322.112023,131.14428 327.278089,128.560251 L369.125523,107.636937 C374.293681,105.053117 380.579166,107.14775 383.163245,112.3156 C385.747324,117.483449 383.650768,123.767348 378.484702,126.351377 L336.637267,147.27469 C331.469109,149.85851 325.183625,147.763878 322.599546,142.596028 Z" id="Path"></path>
            <path d="M334.828571,208.091639 C335.1803,202.081464 340.197735,197.501867 346.039402,197.861693 L393.332114,200.783912 C399.173781,201.143737 403.623364,206.309958 403.273754,212.320134 C402.922025,218.33249 397.90459,222.912086 392.062924,222.552261 L344.770211,219.630042 C338.928544,219.270217 334.478961,214.103995 334.828571,208.091639 Z" id="Path"></path>
            <path d="M313.739554,273.012763 C316.972164,268.101752 323.558447,266.750957 328.454088,269.991585 L368.086479,296.242591 C372.979996,299.483219 374.328687,306.09231 371.098201,311.001191 C367.865591,315.912202 361.277184,317.262996 356.383667,314.022368 L316.751276,287.771363 C311.855635,284.530735 310.509068,277.921643 313.739554,273.012763 Z" id="Path"></path>
            <path d="M216.124785,1.92168209 C222.137141,2.27235506 226.716737,7.29132227 226.356912,13.1317754 L223.434693,60.4260117 C223.074868,66.2666767 217.908647,70.7171511 211.89629,70.36669 C205.886115,70.016017 201.306518,64.9970498 201.666344,59.1565967 L204.588563,11.8623604 C204.948388,6.02169541 210.114609,1.571221 216.124785,1.92168209 Z" id="Path"></path>
            <path d="M197.101622,331.024139 C203.113924,331.373758 207.693479,336.393435 207.333656,342.235245 L204.411464,389.529119 C204.049461,395.36881 198.885468,399.820622 192.873166,399.468884 C186.863045,399.119266 182.281309,394.099589 182.643312,388.259897 L185.565505,340.963904 C185.925327,335.124213 191.091501,330.672401 197.101622,331.024139 Z" id="Path"></path>
            <path d="M351.930233,200.695349 C351.930233,282.11896 285.923376,348.125581 204.499473,348.125581 C123.076835,348.125581 57.0697674,282.11896 57.0697674,200.695349 C57.0697674,119.271948 123.076835,53.2651163 204.499473,53.2651163 C285.923376,53.2651163 351.930233,119.271948 351.930233,200.695349 Z M162.376399,263.879734 C174.008686,263.879734 183.437936,254.450518 183.437936,242.818272 C183.437936,231.186027 174.008686,221.756811 162.376399,221.756811 C150.745376,221.756811 141.315915,231.186027 141.315915,242.818272 C141.315915,254.450518 150.745376,263.879734 162.376399,263.879734 Z M267.684085,179.633887 C267.684085,191.266132 258.254834,200.695349 246.622547,200.695349 C234.992367,200.695349 225.56101,191.266132 225.56101,179.633887 C225.56101,168.001642 234.992367,158.572425 246.622547,158.572425 C258.254834,158.572425 267.684085,168.001642 267.684085,179.633887 Z M183.437936,148.041694 C183.437936,153.857817 178.724364,158.572425 172.907168,158.572425 C167.092078,158.572425 162.376399,153.857817 162.376399,148.041694 C162.376399,142.225782 167.092078,137.510963 172.907168,137.510963 C178.724364,137.510963 183.437936,142.225782 183.437936,148.041694 Z M257.153316,263.879734 C262.970513,263.879734 267.684085,259.164073 267.684085,253.349003 C267.684085,247.533934 262.970513,242.818272 257.153316,242.818272 C251.338226,242.818272 246.622547,247.533934 246.622547,253.349003 C246.622547,259.164073 251.338226,263.879734 257.153316,263.879734 Z" id="Shape"></path>
            <path d="M204.499473,327.06412 C274.293195,327.06412 330.868696,270.486715 330.868696,200.695349 C330.868696,130.903772 274.293195,74.3265781 204.499473,74.3265781 C134.708701,74.3265781 78.1313045,130.903772 78.1313045,200.695349 C78.1313045,270.486715 134.708701,327.06412 204.499473,327.06412 Z M204.499473,242.818272 C204.499473,266.082763 185.640973,284.941196 162.376399,284.941196 C139.113511,284.941196 120.254378,266.082763 120.254378,242.818272 C120.254378,219.553782 139.113511,200.695349 162.376399,200.695349 C185.640973,200.695349 204.499473,219.553782 204.499473,242.818272 Z M288.745622,179.633887 C288.745622,202.898378 269.887121,221.756811 246.622547,221.756811 C223.36008,221.756811 204.499473,202.898378 204.499473,179.633887 C204.499473,156.370028 223.36008,137.510963 246.622547,137.510963 C269.887121,137.510963 288.745622,156.370028 288.745622,179.633887 Z M204.499473,148.041694 C204.499473,165.489009 190.356651,179.633887 172.907168,179.633887 C155.460212,179.633887 141.315915,165.489009 141.315915,148.041694 C141.315915,130.593958 155.460212,116.449502 172.907168,116.449502 C190.356651,116.449502 204.499473,130.593958 204.499473,148.041694 Z M172.907168,137.510963 C167.092078,137.510963 162.376399,142.225782 162.376399,148.041694 C162.376399,153.857817 167.092078,158.572425 172.907168,158.572425 C178.724364,158.572425 183.437936,153.857817 183.437936,148.041694 C183.437936,142.225782 178.724364,137.510963 172.907168,137.510963 Z M257.153316,242.818272 C251.338226,242.818272 246.622547,247.533934 246.622547,253.349003 C246.622547,259.164073 251.338226,263.879734 257.153316,263.879734 C262.970513,263.879734 267.684085,259.164073 267.684085,253.349003 C267.684085,247.533934 262.970513,242.818272 257.153316,242.818272 Z M288.745622,253.349003 C288.745622,270.796318 274.602799,284.941196 257.153316,284.941196 C239.705939,284.941196 225.56101,270.796318 225.56101,253.349003 C225.56101,235.901688 239.705939,221.756811 257.153316,221.756811 C274.602799,221.756811 288.745622,235.901688 288.745622,253.349003 Z M204.499473,348.125581 C285.923376,348.125581 351.930233,282.11896 351.930233,200.695349 C351.930233,119.271948 285.923376,53.2651163 204.499473,53.2651163 C123.076835,53.2651163 57.0697674,119.271948 57.0697674,200.695349 C57.0697674,282.11896 123.076835,348.125581 204.499473,348.125581 Z M183.437936,242.818272 C183.437936,254.450518 174.008686,263.879734 162.376399,263.879734 C150.745376,263.879734 141.315915,254.450518 141.315915,242.818272 C141.315915,231.186027 150.745376,221.756811 162.376399,221.756811 C174.008686,221.756811 183.437936,231.186027 183.437936,242.818272 Z M246.622547,200.695349 C258.254834,200.695349 267.684085,191.266132 267.684085,179.633887 C267.684085,168.001642 258.254834,158.572425 246.622547,158.572425 C234.992367,158.572425 225.56101,168.001642 225.56101,179.633887 C225.56101,191.266132 234.992367,200.695349 246.622547,200.695349 Z" id="Shape"></path>
        </g>
    </g>
</svg>